<?xml version="1.0" standalone="no"?>
<!DOCTYPE svg PUBLIC "-//W3C//DTD SVG 20010904//EN"
 "http://www.w3.org/TR/2001/REC-SVG-20010904/DTD/svg10.dtd">
<svg version="1.0" xmlns="http://www.w3.org/2000/svg"
 width="250.000000pt" height="250.000000pt" viewBox="0 0 250.000000 250.000000"
 preserveAspectRatio="xMidYMid meet">
<metadata>
Created by potrace 1.11, written by Peter Selinger 2001-2013
</metadata>
<g transform="translate(0.000000,250.000000) scale(0.100000,-0.100000)"
fill="#000000" stroke="none">
<path d="M1618 2412 c-79 -37 -118 -99 -118 -186 0 -46 6 -62 36 -107 20 -30
37 -61 39 -69 2 -14 7 -16 48 -19 10 0 16 -5 13 -10 -3 -4 -36 -9 -73 -10 -37
-1 -69 -3 -71 -5 -2 -2 4 -18 13 -35 9 -17 15 -37 14 -44 -1 -6 1 -23 4 -37
11 -41 18 -1018 8 -1025 -5 -3 -12 -1 -15 4 -4 5 -2 12 4 16 5 3 10 12 10 18
0 7 -4 6 -10 -3 -7 -12 -12 -11 -30 5 -11 10 -18 25 -16 32 3 7 0 12 -6 10 -6
-1 -13 4 -16 12 -3 10 0 11 9 5 12 -7 12 -5 0 9 -7 9 -22 17 -32 17 -11 0 -18
3 -18 8 3 19 -2 33 -10 27 -5 -3 -13 0 -17 6 -5 8 -2 10 7 5 8 -4 6 -1 -3 7
-10 8 -18 20 -18 26 0 7 -4 9 -10 6 -9 -6 -14 8 -11 28 0 4 -4 7 -10 7 -7 0
-22 11 -34 24 -17 18 -20 27 -11 37 8 9 8 10 -2 5 -6 -4 -20 0 -29 10 -16 16
-16 16 5 10 13 -5 22 -3 22 3 0 6 -3 10 -7 10 -38 -6 -70 24 -44 41 10 5 9 9
-3 13 -8 3 -18 1 -22 -5 -5 -7 -2 -8 6 -3 9 5 11 4 6 -4 -4 -6 -12 -9 -17 -5
-5 3 -7 9 -4 14 3 4 -1 11 -7 13 -10 4 -10 6 0 6 6 1 12 5 12 11 0 5 -7 7 -15
4 -23 -9 -38 5 -24 22 9 12 9 13 -3 9 -8 -3 -23 3 -33 15 -10 11 -14 20 -10
20 4 0 -2 9 -15 20 -13 11 -21 20 -18 20 3 0 -9 16 -28 35 -18 19 -34 47 -36
63 -2 22 -7 26 -25 24 -18 -3 -22 0 -16 15 3 10 3 15 -2 11 -10 -10 -47 31
-39 44 3 4 2 8 -3 7 -21 -4 -24 2 -12 19 13 16 12 16 -7 -1 -20 -17 -22 -17
-35 0 -13 16 -12 17 2 5 14 -10 18 -10 23 3 3 9 2 14 -3 11 -4 -3 -18 5 -30
18 -21 22 -21 25 -6 34 16 8 16 9 0 15 -9 4 -13 12 -9 19 6 10 4 11 -7 1 -17
-17 -26 -16 -32 1 -4 10 -1 14 11 10 9 -2 5 2 -11 9 -15 7 -24 16 -21 20 4 4
2 7 -4 7 -7 0 -12 7 -12 17 0 9 -3 14 -6 10 -4 -3 -22 13 -40 36 -19 23 -39
47 -44 54 -6 7 -10 18 -10 24 0 7 -3 10 -6 7 -3 -4 -22 12 -42 35 -47 54 -53
58 -77 55 -20 -3 -20 -11 -21 -868 0 -476 -4 -884 -8 -907 -4 -23 -14 -47 -22
-54 -21 -17 -9 -26 31 -24 19 2 38 -1 41 -6 3 -5 9 -7 14 -4 5 3 15 -4 23 -15
7 -11 17 -17 20 -13 4 3 1 13 -6 22 -11 14 -10 14 6 2 15 -12 20 -12 27 -2 5
9 10 10 14 2 4 -6 2 -11 -4 -11 -6 0 -8 -5 -5 -11 5 -7 14 -4 28 8 l21 18 -18
-29 -18 -29 25 19 c14 11 23 22 21 26 -2 4 1 10 7 14 8 4 9 3 5 -4 -4 -7 -1
-12 8 -12 8 0 16 3 19 8 2 4 2 1 1 -6 -5 -17 27 -11 42 7 9 11 11 11 11 -3 0
-14 -9 -20 -28 -18 -3 1 -6 -6 -6 -14 0 -10 4 -11 11 -4 14 14 29 13 20 -2 -4
-7 -3 -8 5 -4 6 4 8 12 5 18 -4 6 -1 9 7 6 7 -2 22 5 32 16 10 12 16 16 14 11
-3 -6 2 -19 10 -30 15 -20 15 -20 9 1 -4 14 -1 28 9 38 23 22 32 20 11 -3 -15
-16 -15 -19 -2 -24 11 -4 13 -1 9 10 -5 12 -3 14 7 8 9 -5 11 -4 6 3 -4 7 -2
12 4 12 6 0 0 10 -13 23 -29 27 -42 58 -22 50 8 -3 13 -9 10 -13 -7 -11 22
-33 37 -27 8 4 7 6 -4 6 -11 1 -16 8 -13 21 3 13 0 18 -7 14 -7 -5 -9 2 -6 20
3 14 1 29 -5 33 -6 3 -7 1 -3 -5 5 -8 2 -10 -9 -6 -14 6 -14 8 2 19 10 7 20
12 24 10 3 -2 6 2 6 10 0 19 -7 19 -21 -1 -11 -14 -13 -14 -25 0 -9 11 -10 16
-2 16 6 0 11 -6 11 -12 0 -7 6 -2 14 12 8 15 9 30 4 37 -5 7 -5 14 2 18 8 5 8
11 -1 21 -6 7 -15 11 -20 8 -5 -3 -6 2 -3 10 3 9 10 16 16 16 5 0 6 -5 2 -12
-5 -7 -3 -8 6 -3 10 6 9 11 -5 22 -18 12 -10 18 17 14 4 0 4 7 1 16 -4 11 -8
13 -11 5 -2 -7 -11 -12 -20 -11 -11 0 -12 2 -4 6 6 2 12 11 12 19 0 9 4 13 9
9 5 -3 13 0 17 6 5 8 3 9 -6 4 -9 -5 -10 -2 -6 13 5 14 1 24 -10 30 -25 14
-11 46 14 33 14 -7 19 -6 19 4 0 8 -4 12 -8 9 -4 -2 -10 0 -14 5 -3 6 -12 8
-20 4 -8 -3 -15 -1 -15 5 0 12 18 11 39 -2 11 -7 13 -5 7 9 -5 14 -4 16 7 7 8
-7 17 -9 21 -5 3 4 13 -2 21 -13 17 -23 19 -38 3 -28 -7 4 -8 3 -4 -5 13 -20
26 -1 20 27 -3 15 -2 22 3 17 10 -13 76 -15 84 -2 3 5 9 -6 13 -25 5 -24 9
-29 15 -19 5 7 14 10 20 7 6 -4 8 -12 5 -18 -4 -7 -2 -8 5 -4 8 6 9 12 2 20
-6 7 -7 16 -3 21 4 4 -3 3 -15 -4 -17 -9 -21 -8 -19 4 1 8 6 18 11 22 4 4 5 2
1 -4 -5 -9 1 -12 24 -9 25 3 28 1 19 -10 -8 -10 -8 -14 -1 -14 6 0 18 10 26
22 9 12 16 18 16 12 0 -5 -7 -19 -15 -31 -12 -17 -13 -23 -3 -29 7 -4 10 -3 5
1 -4 5 0 17 10 27 20 23 40 24 22 1 -13 -15 -12 -15 8 -3 12 8 20 18 17 22 -3
4 2 5 12 1 15 -5 15 -7 0 -15 -9 -5 -16 -14 -16 -21 0 -8 4 -7 9 2 8 13 12 13
28 0 16 -12 17 -12 6 2 -11 13 -9 16 17 16 26 0 28 -3 17 -16 -11 -14 -10 -14
6 -2 17 13 17 15 0 35 -13 15 -14 17 -2 8 9 -6 20 -8 24 -4 5 4 5 2 1 -5 -4
-7 2 -17 15 -23 15 -8 19 -9 15 -1 -10 15 7 14 22 -1 8 -8 12 -8 12 -1 0 13
-28 25 -41 17 -5 -3 -9 -3 -9 0 0 3 10 10 21 17 17 9 20 8 14 -2 -6 -9 -3 -11
9 -6 11 4 15 3 11 -4 -4 -6 1 -9 11 -7 13 2 18 -2 16 -14 -1 -9 3 -20 9 -24 8
-5 10 -3 4 7 -4 8 2 4 14 -8 11 -12 21 -27 21 -32 0 -5 4 -12 9 -15 5 -4 7 3
4 14 -4 15 0 20 13 20 15 0 16 -2 5 -9 -11 -7 -11 -9 0 -13 12 -4 12 -7 0 -21
-12 -15 -11 -17 4 -17 11 0 15 -5 11 -16 -3 -8 -2 -13 2 -11 4 3 16 -5 27 -16
11 -11 14 -17 8 -13 -9 5 -11 2 -7 -8 3 -9 9 -14 13 -12 4 3 16 -7 27 -21 10
-15 25 -32 32 -39 6 -7 12 -17 12 -23 0 -6 4 -11 9 -11 5 0 20 -14 32 -32 13
-17 18 -29 13 -25 -6 3 -11 0 -11 -7 0 -8 8 -11 18 -9 11 3 19 -3 24 -16 3
-12 11 -21 16 -21 6 0 7 -4 4 -10 -3 -5 0 -10 8 -10 15 0 53 -49 49 -63 -1 -4
7 -3 18 3 25 13 27 25 3 15 -14 -5 -15 -4 -6 6 10 10 16 9 28 -1 13 -11 13
-15 3 -22 -10 -7 -10 -8 2 -5 8 2 14 10 12 17 -2 7 3 10 12 7 8 -3 20 2 28 11
12 15 11 16 -4 3 -21 -15 -24 -2 -5 18 10 11 9 13 -1 7 -7 -4 -15 -1 -18 8 -3
9 -12 12 -22 9 -18 -7 -17 -5 12 17 11 8 17 10 13 3 -4 -6 -3 -14 2 -17 5 -4
8 2 6 11 -1 10 0 23 4 28 9 17 10 35 0 29 -5 -3 -7 5 -5 18 2 13 10 22 17 20
10 -3 10 0 -1 12 -10 13 -10 16 0 16 8 0 11 3 7 6 -3 3 -21 -4 -39 -17 -29
-20 -31 -20 -15 -3 9 12 14 24 10 29 -5 4 -3 5 3 2 7 -4 15 0 18 9 3 9 11 12
18 8 8 -4 10 -3 5 2 -5 5 -13 10 -18 10 -5 1 -14 2 -20 3 -5 0 -8 5 -4 11 3 5
11 8 18 6 7 -1 9 -1 4 2 -4 2 -12 13 -18 24 -10 18 -9 20 5 15 14 -6 15 -3 5
15 -11 21 -12 21 -25 3 -8 -10 -14 -14 -14 -8 0 7 5 15 10 18 6 4 8 16 5 28
-5 18 -3 17 12 -5 18 -28 33 -36 33 -18 0 6 -4 10 -10 10 -5 0 -10 9 -10 20 0
11 6 20 13 20 8 0 7 4 -3 10 -13 9 -13 10 0 10 12 1 11 3 -3 11 -13 8 -23 7
-35 -3 -12 -9 -12 -7 2 10 13 15 22 19 27 11 5 -8 8 -8 13 0 4 6 1 11 -6 11
-9 0 -9 3 2 10 20 13 4 13 -21 -1 -18 -9 -19 -8 -8 9 7 11 19 18 28 15 14 -4
14 -4 1 6 -12 9 -13 11 -1 11 8 0 12 3 9 6 -4 3 -17 0 -30 -7 -20 -11 -21 -10
-11 3 7 8 11 32 9 53 -2 27 3 44 16 57 20 20 16 23 -13 7 -18 -9 -19 -8 -8 9
7 11 19 18 28 15 14 -4 14 -4 1 6 -12 9 -13 11 -1 11 8 0 12 3 9 6 -4 3 -17 0
-30 -7 -20 -11 -21 -10 -11 3 7 8 11 32 9 53 -2 27 3 44 16 57 20 20 16 23
-13 7 -18 -9 -19 -8 -8 9 7 11 19 18 28 15 14 -4 14 -4 1 6 -12 9 -13 11 -1
11 8 0 12 3 9 6 -4 3 -17 0 -30 -7 -20 -11 -21 -10 -11 3 7 8 11 32 9 53 -2
27 3 44 16 57 20 20 16 23 -13 7 -18 -9 -19 -8 -8 9 7 11 19 18 28 15 14 -4
14 -4 1 6 -12 9 -13 11 -1 11 8 0 12 3 9 6 -4 3 -17 0 -30 -7 -20 -11 -21 -10
-11 2 6 8 11 38 9 66 -1 28 2 49 7 46 4 -3 6 -11 4 -17 -3 -7 0 -13 7 -13 6 0
12 8 12 18 0 10 -3 16 -7 14 -3 -3 -11 7 -17 20 -7 15 -8 26 -2 30 6 4 6 14
-1 27 -10 18 -9 20 5 15 14 -6 15 -3 5 15 -11 21 -12 21 -25 3 -8 -10 -14 -14
-14 -8 0 7 5 15 10 18 6 4 8 16 5 28 -4 14 3 8 19 -15 15 -21 29 -38 33 -38 3
0 0 6 -6 13 -6 8 -8 17 -4 20 3 4 1 7 -5 7 -7 0 -11 15 -9 40 1 22 6 40 11 40
5 0 6 3 3 6 -4 4 -19 -1 -34 -11 -28 -18 -28 -18 -10 2 9 11 14 23 10 28 -5 4
-3 5 3 2 7 -4 15 0 18 8 3 9 -1 18 -9 21 -8 4 -12 10 -9 15 3 5 15 4 27 -2 18
-10 17 -7 -5 14 -31 29 -36 42 -13 33 13 -5 14 -2 4 16 -11 21 -12 21 -25 3
-8 -10 -14 -14 -14 -8 0 7 5 15 10 18 6 4 8 16 5 28 -4 14 3 8 19 -15 15 -21
29 -38 33 -38 3 0 0 6 -6 13 -6 8 -8 17 -4 20 3 4 1 7 -5 7 -7 0 -12 10 -12
21 0 19 2 20 18 8 15 -13 16 -12 3 4 -7 9 -10 17 -6 17 4 0 3 6 -4 13 -8 10
-7 17 2 27 6 7 -4 3 -23 -10 -30 -21 -33 -21 -17 -4 9 12 14 24 10 29 -5 4 -2
4 6 0 11 -6 13 -4 8 8 -4 11 -2 14 9 10 7 -3 14 0 14 6 0 6 -3 10 -7 10 -21
-3 -34 2 -28 11 4 6 12 7 18 4 7 -4 9 -4 5 1 -4 4 -2 15 5 23 10 13 9 14 -2 7
-11 -6 -13 -2 -9 19 3 14 1 29 -5 33 -6 4 -7 1 -2 -8 5 -8 4 -10 0 -6 -5 4
-10 14 -11 22 -2 12 2 13 18 4 13 -7 18 -7 14 -1 -3 6 -3 12 1 15 5 2 2 2 -5
0 -8 -1 -12 3 -9 9 2 7 0 21 -5 32 -9 17 -7 18 17 14 16 -3 23 -2 18 3 -5 5
-20 11 -33 14 -12 2 -25 7 -29 11 -3 4 2 4 12 1 19 -7 24 8 5 17 -7 3 2 4 20
1 19 -2 31 -1 27 3 -6 7 -10 8 -36 11 -5 0 -7 6 -4 11 3 6 -4 10 -17 11 -13 1
-35 2 -50 3 -33 1 -56 20 -37 31 7 5 10 4 5 -3 -3 -6 -2 -13 4 -17 6 -3 13 1
16 9 3 9 10 13 15 10 5 -3 9 0 9 6 0 6 5 8 10 5 6 -3 10 -11 10 -16 0 -6 -4
-8 -8 -5 -4 2 -14 0 -22 -5 -12 -7 -11 -8 5 -6 11 1 30 12 42 24 17 17 19 23
7 27 -8 3 -22 3 -31 0 -10 -2 -8 1 5 7 12 7 22 17 22 22 0 6 6 3 13 -8 10 -13
16 -15 21 -6 4 6 12 8 18 5 7 -4 8 -2 4 5 -4 6 -10 9 -14 7 -4 -2 -15 2 -25 9
-16 11 -16 13 -2 19 9 3 13 10 10 16 -9 15 1 12 18 -4 12 -13 14 -10 15 15 0
16 -3 29 -8 29 -5 0 -7 -8 -3 -17 7 -19 5 -18 -17 11 -10 13 -10 17 -2 12 18
-11 15 5 -4 19 -15 11 -15 12 0 12 9 0 16 -4 16 -8 0 -5 10 -13 23 -19 21 -11
21 -10 3 4 -11 9 -16 16 -10 16 5 0 3 4 -5 9 -8 5 -12 15 -9 22 10 26 9 33 -7
35 -13 2 -14 -1 -4 -12 7 -8 7 -14 1 -14 -18 0 -21 29 -4 40 14 9 12 10 -8 4
-23 -6 -24 -6 -10 11 13 17 13 18 -2 13 -21 -9 -31 2 -16 19 8 10 8 12 -4 8
-10 -4 -24 4 -38 22 -12 15 -25 28 -28 27 -4 0 -21 5 -39 13 -44 18 -110 16
-155 -5z m2 -365 c0 -2 -8 -3 -18 -4 -10 -1 -19 5 -19 12 0 10 5 11 19 4 10
-5 18 -11 18 -12z m70 -21 c0 -3 -4 -8 -10 -11 -5 -3 -10 -1 -10 4 0 6 5 11
10 11 6 0 10 -2 10 -4z m215 -125 c3 -5 2 -12 -3 -15 -5 -3 -9 1 -9 9 0 17 3
19 12 6z m5 -117 c0 -2 -9 0 -20 6 -11 6 -20 13 -20 16 0 2 9 0 20 -6 11 -6
20 -13 20 -16z m-1045 -84 c3 -5 1 -10 -4 -10 -6 0 -11 5 -11 10 0 6 2 10 4
10 3 0 8 -4 11 -10z m1046 -43 c-13 -13 -26 -3 -16 12 3 6 11 8 17 5 6 -4 6
-10 -1 -17z m-1005 -93 c1 -9 0 -13 -4 -10 -3 4 -7 14 -8 22 -1 9 0 13 4 10 3
-4 7 -14 8 -22z m114 -60 c0 -8 -5 -12 -10 -9 -6 4 -8 11 -5 16 9 14 15 11 15
-7z m887 -79 c0 -8 -4 -15 -9 -15 -10 0 -11 14 -1 23 9 10 10 9 10 -8z m-973
-181 c13 -5 14 -9 4 -21 -10 -12 -9 -14 8 -11 13 2 19 -2 18 -13 -1 -9 6 -16
15 -15 9 1 15 -6 15 -16 -1 -10 2 -16 6 -13 4 2 16 -5 26 -17 11 -12 14 -18 7
-15 -6 4 -15 2 -19 -4 -4 -8 -3 -9 4 -5 7 4 12 3 12 -2 0 -6 8 -9 17 -8 10 0
20 -9 24 -24 4 -14 7 -21 8 -17 2 15 31 -21 31 -38 0 -9 5 -13 10 -10 6 3 10
1 10 -6 0 -6 9 -20 21 -30 14 -12 19 -24 14 -39 -6 -20 -13 -21 -118 -19 -62
1 -121 5 -132 10 -11 4 -14 8 -7 8 7 1 10 5 7 11 -11 18 -14 51 -4 45 5 -4 6
-11 3 -17 -4 -7 -2 -8 4 -4 9 5 9 13 2 27 -6 11 -15 17 -19 15 -4 -3 -8 2 -8
10 0 10 7 8 24 -8 22 -21 23 -21 17 -3 -4 11 -15 26 -23 33 -14 10 -13 11 4 6
19 -5 19 -5 3 9 -19 15 -25 32 -8 22 13 -8 13 11 -1 38 -9 16 -9 22 0 25 6 2
9 8 5 13 -3 5 -1 9 5 9 5 0 9 -9 8 -19 0 -11 -5 -17 -10 -14 -5 3 -4 -4 2 -16
15 -27 18 -27 16 2 -1 12 2 30 7 41 7 12 6 22 -2 30 -8 8 -10 7 -7 -4 2 -8 2
-12 0 -8 -3 5 -14 3 -26 -3 -21 -10 -21 -10 -3 5 11 9 16 16 11 16 -5 0 -4 5
3 12 15 15 16 32 2 23 -5 -3 -10 -1 -10 4 0 13 3 13 24 5z m252 -303 c-4 -5 0
-12 6 -14 8 -3 6 -6 -4 -6 -18 -1 -24 10 -11 22 9 10 15 8 9 -2z m139 -340
c-6 -5 -25 10 -25 20 0 5 6 4 14 -3 8 -7 12 -15 11 -17z m209 -26 c-4 -8 -8
-15 -10 -15 -2 0 -4 7 -4 15 0 8 4 15 10 15 5 0 7 -7 4 -15z m373 -30 c0 -8
-4 -15 -9 -15 -10 0 -11 14 -1 23 9 10 10 9 10 -8z m-987 -20 c-7 -8 -17 -15
-23 -15 -6 0 -2 8 9 19 22 21 33 19 14 -4z m-2 -139 c-7 -8 -17 -12 -22 -9 -4
3 -2 9 5 14 22 13 31 11 17 -5z m12 -31 c0 -7 -30 -13 -34 -7 -3 4 4 9 15 9
10 1 19 0 19 -2z m981 -38 c-6 -8 -8 -17 -4 -20 3 -4 1 -7 -5 -7 -15 0 -15 13
0 28 16 16 23 15 9 -1z m2 -71 c-5 -7 -9 -5 -11 7 -2 9 -8 14 -14 11 -7 -4 -8
-2 -4 5 6 9 11 9 22 0 7 -6 11 -16 7 -23z m-998 14 c3 -6 -1 -7 -9 -4 -18 7
-21 14 -7 14 6 0 13 -4 16 -10z m966 -33 c-10 -9 -11 -8 -5 6 3 10 9 15 12 12
3 -3 0 -11 -7 -18z m23 -46 c3 -5 -2 -15 -11 -22 -12 -10 -14 -10 -9 -1 4 7 2
12 -6 12 -9 0 -9 3 2 10 18 12 18 12 24 1z"/>
<path d="M956 1162 c-3 -5 1 -9 9 -9 8 0 12 4 9 9 -3 4 -7 8 -9 8 -2 0 -6 -4
-9 -8z"/>
<path d="M925 1080 c-3 -5 -1 -10 4 -10 6 0 11 5 11 10 0 6 -2 10 -4 10 -3 0
-8 -4 -11 -10z"/>
<path d="M1070 1046 c0 -2 7 -7 16 -10 8 -3 12 -2 9 4 -6 10 -25 14 -25 6z"/>
<path d="M933 971 c-8 -12 -8 -22 -1 -32 8 -11 9 -11 5 2 -3 9 0 22 6 28 6 6
9 13 6 15 -3 3 -10 -3 -16 -13z"/>
<path d="M1840 2386 c0 -2 8 -10 18 -17 15 -13 16 -12 3 4 -13 16 -21 21 -21
13z"/>
<path d="M1955 2240 c3 -5 8 -10 11 -10 2 0 4 5 4 10 0 6 -5 10 -11 10 -5 0
-7 -4 -4 -10z"/>
<path d="M1915 2130 c-3 -5 -1 -10 4 -10 6 0 11 5 11 10 0 6 -2 10 -4 10 -3 0
-8 -4 -11 -10z"/>
<path d="M1894 2038 c-4 -7 -4 -10 1 -6 4 4 15 2 24 -5 14 -11 14 -10 2 6 -16
20 -18 21 -27 5z"/>
<path d="M670 1940 c0 -5 5 -10 11 -10 5 0 7 5 4 10 -3 6 -8 10 -11 10 -2 0
-4 -4 -4 -10z"/>
<path d="M1926 1905 c4 -8 11 -15 16 -15 6 0 5 6 -2 15 -7 8 -14 15 -16 15 -2
0 -1 -7 2 -15z"/>
<path d="M751 1854 c0 -11 3 -14 6 -6 3 7 2 16 -1 19 -3 4 -6 -2 -5 -13z"/>
<path d="M760 1826 c0 -2 7 -7 16 -10 8 -3 12 -2 9 4 -6 10 -25 14 -25 6z"/>
<path d="M882 1666 c7 -8 15 -12 17 -11 5 6 -10 25 -20 25 -5 0 -4 -6 3 -14z"/>
<path d="M915 1660 c-3 -5 -1 -10 4 -10 6 0 11 5 11 10 0 6 -2 10 -4 10 -3 0
-8 -4 -11 -10z"/>
<path d="M1918 1543 c7 -3 16 -2 19 1 4 3 -2 6 -13 5 -11 0 -14 -3 -6 -6z"/>
<path d="M1059 1453 c25 -37 28 -39 28 -18 0 8 -5 11 -10 8 -7 -4 -8 1 -3 13
4 10 4 15 0 11 -4 -4 -14 -1 -23 6 -8 6 -5 -3 8 -20z"/>
<path d="M1130 1356 c0 -2 6 -9 14 -15 11 -9 16 -9 22 0 4 8 3 9 -4 5 -7 -4
-12 -2 -12 3 0 6 -4 11 -10 11 -5 0 -10 -2 -10 -4z"/>
<path d="M1918 1303 c7 -3 16 -2 19 1 4 3 -2 6 -13 5 -11 0 -14 -3 -6 -6z"/>
<path d="M1905 1281 c-3 -5 0 -13 6 -17 8 -5 9 -3 4 6 -6 10 -4 12 9 7 10 -4
15 -3 11 3 -8 13 -22 13 -30 1z"/>
<path d="M1315 1180 c3 -5 8 -10 11 -10 2 0 4 5 4 10 0 6 -5 10 -11 10 -5 0
-7 -4 -4 -10z"/>
<path d="M1907 1177 c-3 -8 0 -14 7 -14 7 0 13 6 13 14 0 7 -4 13 -8 13 -4 0
-9 -6 -12 -13z"/>
<path d="M1313 1149 c9 -6 14 -15 11 -21 -4 -7 -2 -8 5 -4 14 9 -3 36 -23 36
-6 0 -3 -5 7 -11z"/>
<path d="M1907 1057 c-3 -8 0 -14 7 -14 7 0 13 6 13 14 0 7 -4 13 -8 13 -4 0
-9 -6 -12 -13z"/>
<path d="M1907 1017 c-3 -8 0 -14 7 -14 7 0 13 6 13 14 0 7 -4 13 -8 13 -4 0
-9 -6 -12 -13z"/>
<path d="M1491 936 c-8 -10 -8 -16 2 -24 10 -9 13 -6 13 13 0 29 0 29 -15 11z"/>
<path d="M1907 897 c-3 -8 0 -14 7 -14 7 0 13 6 13 14 0 7 -4 13 -8 13 -4 0
-9 -6 -12 -13z"/>
<path d="M1907 857 c-3 -8 0 -14 7 -14 7 0 13 6 13 14 0 7 -4 13 -8 13 -4 0
-9 -6 -12 -13z"/>
<path d="M1907 737 c-3 -8 0 -14 7 -14 7 0 13 6 13 14 0 7 -4 13 -8 13 -4 0
-9 -6 -12 -13z"/>
<path d="M1907 697 c-3 -8 0 -14 7 -14 7 0 13 6 13 14 0 7 -4 13 -8 13 -4 0
-9 -6 -12 -13z"/>
<path d="M970 604 c0 -8 5 -12 10 -9 6 4 8 11 5 16 -9 14 -15 11 -15 -7z"/>
<path d="M1034 584 c1 -25 11 -23 18 4 3 11 0 19 -7 19 -7 0 -12 -10 -11 -23z"/>
<path d="M1071 597 c-9 -12 -9 -17 0 -23 8 -4 9 -3 5 4 -4 7 -2 12 3 12 6 0
11 -5 11 -12 0 -6 3 -9 6 -5 3 3 2 13 -3 22 -8 14 -11 14 -22 2z"/>
<path d="M1445 589 c-4 -6 -5 -12 -2 -15 2 -3 7 2 10 11 7 17 1 20 -8 4z"/>
<path d="M920 580 c0 -5 5 -10 11 -10 5 0 7 5 4 10 -3 6 -8 10 -11 10 -2 0 -4
-4 -4 -10z"/>
<path d="M945 380 c-3 -6 1 -7 9 -4 18 7 21 14 7 14 -6 0 -13 -4 -16 -10z"/>
<path d="M550 141 c0 -6 4 -13 10 -16 6 -3 7 1 4 9 -7 18 -14 21 -14 7z"/>
<path d="M578 138 c9 -11 10 -18 2 -23 -5 -3 -10 -12 -10 -18 0 -7 5 -4 11 6
13 22 33 22 24 0 -5 -14 -3 -15 5 -6 9 8 9 16 1 30 -6 10 -11 14 -11 9 0 -5
-8 -2 -17 5 -16 13 -17 12 -5 -3z"/>
<path d="M870 114 c0 -8 5 -12 10 -9 6 4 8 11 5 16 -9 14 -15 11 -15 -7z"/>
<path d="M650 116 c0 -2 7 -9 15 -16 13 -11 14 -10 9 4 -5 14 -24 23 -24 12z"/>
<path d="M745 112 c-5 -4 -11 -14 -13 -22 -1 -10 3 -8 13 5 14 17 17 18 26 5
9 -12 10 -12 7 -1 -5 18 -19 23 -33 13z"/>
<path d="M1870 99 c0 -5 5 -7 10 -4 6 3 10 8 10 11 0 2 -4 4 -10 4 -5 0 -10
-5 -10 -11z"/>
</g>
</svg>
